<?xml version="1.0" encoding="utf-8"?>
<!-- Generator: Adobe Illustrator 24.1.0, SVG Export Plug-In . SVG Version: 6.00 Build 0)  -->
<svg version="1.1" id="Layer_1" xmlns="http://www.w3.org/2000/svg" xmlns:xlink="http://www.w3.org/1999/xlink" x="0px" y="0px"
	 viewBox="0 0 547.7 540" style="enable-background:new 0 0 547.7 540;" xml:space="preserve">
<style type="text/css">
	.st0{fill:#003459;}
	.st1{fill:none;stroke:url(#SVGID_1_);stroke-width:14.03;stroke-linecap:round;stroke-miterlimit:10;}
</style>
<path class="st0" d="M48,18.2h383.6c19.2,0,34.7,15.5,34.7,34.7v404.7c0,19.2-15.5,34.7-34.7,34.7H48c-19.2,0-34.7-15.5-34.7-34.7
	V52.9C13.3,33.8,28.8,18.2,48,18.2z"/>
<g id="Layer_13">
	
		<linearGradient id="SVGID_1_" gradientUnits="userSpaceOnUse" x1="137.1263" y1="-95.7535" x2="650.805" y2="-95.7535" gradientTransform="matrix(1 0 0 -1 -107.1 157.9)">
		<stop  offset="0" style="stop-color:#FF1D25"/>
		<stop  offset="0.25" style="stop-color:#FF931E"/>
		<stop  offset="0.5" style="stop-color:#7AC943"/>
		<stop  offset="0.75" style="stop-color:#3FA9F5"/>
		<stop  offset="1" style="stop-color:#FF7BAC"/>
	</linearGradient>
	<path class="st1" d="M510.1,151.3c-83.9,11.4-119.5,42.7-136.1,70.9c-28.2,48-4.2,91.8-41.2,135.9c-34.5,41.1-88.6,42.8-97.8,42.9
		c-7.6,0.1-61.6-1-101.7-42.9c-55.1-57.6-55.1-151.1,0-208.7s144.4-57.6,199.5,0 M371.6,108.7c-76.5-80.1-200.6-80.1-277.2,0
		s-76.5,210,0,290.1c51,53.3,117.2,59.3,129.5,59.9c6.4,0.3,92.7,3.1,147.7-59.9c40.3-46.1,25.2-83.4,66.9-134.9
		c30.6-37.8,69.7-56.2,98.1-65.8 M294,190.1c-33.6-35.2-88.1-35.2-121.7,0s-33.6,92.2,0,127.4c25.8,27,60.8,26.5,64.6,26.3
		c30.8-1.5,51.2-20.3,57.2-26.3c32.2-32.5,20.1-70.2,37.8-111c12.7-29.3,42.2-63.6,115.5-87 M256.7,229c-12.2-13-32.7-13.7-45.8-1.5
		c-0.5,0.5-1,1-1.5,1.5c-13.1,13.9-13.1,35.6,0,49.5c12.2,13.1,32.7,13.7,45.8,1.5c0,0,0,0,0,0c0.5-0.5,1-1,1.5-1.5
		C269.8,264.6,269.8,243,256.7,229L256.7,229z"/>
</g>
</svg>
